<svg id="visual" viewBox="0 0 900 600" width="900" height="600" 
xmlns="http://www.w3.org/2000/svg" 
xmlns:xlink="http://www.w3.org/1999/xlink" version="1.1">
<rect x="0" y="0" width="900" height="600" fill="#001220">
</rect><defs>
<linearGradient id="grad1_0" x1="33.3%" y1="100%" x2="100%" y2="0%">
<stop offset="20%" stop-color="#001220" stop-opacity="1"></stop>
<stop offset="80%" stop-color="#001220" stop-opacity="1"></stop>
</linearGradient></defs><defs><linearGradient id="grad2_0" x1="0%" y1="100%" x2="66.7%" y2="0%">
<stop offset="20%" stop-color="#001220" stop-opacity="1"></stop>
<stop offset="80%" stop-color="#001220" stop-opacity="1"></stop>
</linearGradient></defs><g transform="translate(900, 600)">
<path d="M-486.7 0C-478.5 -61.1 -470.3 -122.1 -449.7 -186.3C-429.1 -250.4 -396.1 -317.6 -341.5 -341.5C-287 -365.5 -210.9 -346.1 -150.4 -363.1C-89.9 -380.1 -44.9 -433.4 0 -486.7L0 0Z" fill="#FBAE3C"></path></g><g transform="translate(0, 0)">
<path d="M486.7 0C453.9 53.8 421.1 107.7 400 165.7C379 223.7 369.7 285.9 336.6 336.6C303.4 387.3 246.4 426.6 186.3 449.7C126.2 472.8 63.1 479.8 0 486.7L0 0Z" fill="#FBAE3C"></path></g></svg>